# xmcd
#
# Track frame offsets: 
#        150
#        22710
#        46778
#        64369
#        85804
#
# Disc length: 1448 seconds
#
# Revision: 2
# Processed by: cddbd v1.5.2PL0 Copyright (c) Steve Scherf et al.
# Submitted via: ExactAudioCopy v0.95b4
#
DISCID=3105a605
DTITLE=Cory Morrow - Texas Time Travel'n
DYEAR=1900
DGENRE=
TTITLE0=Drinking Alone
TTITLE1=How Was The West Won
TTITLE2=Texas Time Travel'n
TTITLE3=Drink One More Round
TTITLE4=Railroad Song
EXTD=
EXTT0=
EXTT1=
EXTT2=
EXTT3=
EXTT4=
PLAYORDER=
